<svg xmlns="http://www.w3.org/2000/svg" xmlns:xlink="http://www.w3.org/1999/xlink" width="2000" zoomAndPan="magnify" viewBox="0 0 1500 1499.999933" height="2000" preserveAspectRatio="xMidYMid meet" version="1.0"><defs><clipPath id="7c66b34a80"><path d="M 634 307.683594 L 1388.609375 307.683594 L 1388.609375 1192.683594 L 634 1192.683594 Z M 634 307.683594 " clip-rule="nonzero"/></clipPath><clipPath id="ae20ce7004"><path d="M 195.359375 367 L 1075 367 L 1075 1134 L 195.359375 1134 Z M 195.359375 367 " clip-rule="nonzero"/></clipPath></defs><g clip-path="url(#7c66b34a80)"><path fill="#fbc926" d="M 1186.347656 307.800781 L 837.054688 307.800781 C 725.296875 307.800781 634.746094 398.402344 634.746094 510.179688 L 634.746094 990.191406 C 634.746094 1101.964844 725.296875 1192.570312 837.007812 1192.570312 L 1186.300781 1192.570312 C 1298.011719 1192.570312 1388.566406 1101.964844 1388.566406 990.191406 L 1388.566406 510.179688 C 1388.609375 398.402344 1298.058594 307.800781 1186.347656 307.800781 Z M 1186.347656 307.800781 " fill-opacity="1" fill-rule="nonzero"/></g><g clip-path="url(#ae20ce7004)"><path fill="#000000" d="M 950.371094 446.339844 C 950.371094 489.96875 915.058594 525.304688 871.453125 525.304688 C 827.847656 525.304688 792.535156 489.96875 792.535156 446.339844 C 792.535156 402.710938 827.894531 367.378906 871.453125 367.378906 C 915.058594 367.378906 950.371094 402.710938 950.371094 446.339844 Z M 397.992188 367.378906 C 354.386719 367.378906 319.074219 402.710938 319.074219 446.339844 C 319.074219 489.96875 354.386719 525.304688 397.992188 525.304688 C 441.597656 525.304688 476.910156 489.96875 476.910156 446.339844 C 476.910156 402.710938 441.597656 367.378906 397.992188 367.378906 Z M 1074.085938 711.230469 C 1074.085938 684.375 1052.328125 662.558594 1025.441406 662.558594 C 998.601562 662.558594 976.800781 684.328125 976.800781 711.230469 C 976.800781 724.0625 981.746094 735.703125 989.851562 744.410156 C 973.089844 925.710938 820.199219 1068.144531 634.699219 1068.144531 C 449.199219 1068.144531 296.308594 925.710938 279.546875 744.410156 C 287.652344 735.703125 292.601562 724.0625 292.601562 711.230469 C 292.601562 684.375 270.84375 662.558594 243.957031 662.558594 C 217.117188 662.605469 195.359375 684.375 195.359375 711.230469 C 195.359375 727.226562 203.101562 741.429688 215.011719 750.324219 C 234.796875 964.664062 415.488281 1133.039062 634.746094 1133.039062 C 854.003906 1133.039062 1034.695312 964.664062 1054.480469 750.324219 C 1066.390625 741.429688 1074.085938 727.269531 1074.085938 711.230469 Z M 1074.085938 711.230469 " fill-opacity="1" fill-rule="nonzero"/></g></svg>